<svg version="1.1" id="Layer_3" xmlns="http://www.w3.org/2000/svg" xmlns:xlink="http://www.w3.org/1999/xlink" x="0px" y="0px"
	 width="40px" height="40px" viewBox="0 0 277.667 277.667" enable-background="new 0 0 277.667 277.667"
	 xml:space="preserve">
<ellipse fill="#FFFFFF" stroke="#000000" stroke-width="10" stroke-miterlimit="10" cx="140.08" cy="138.377" rx="60.833" ry="60.907"/>
<path stroke="#000000" stroke-miterlimit="10" d="M149.501,54.398c0,5.438-4.402,9.846-9.833,9.846l0,0
	c-5.432,0-9.834-4.408-9.834-9.846V10.345c0-5.437,4.402-9.845,9.834-9.845l0,0c5.431,0,9.833,4.408,9.833,9.845V54.398z"/>
<path stroke="#000000" stroke-miterlimit="10" d="M149.501,267.322c0,5.437-4.402,9.845-9.833,9.845l0,0
	c-5.432,0-9.834-4.408-9.834-9.845v-44.053c0-5.438,4.402-9.846,9.834-9.846l0,0c5.431,0,9.833,4.408,9.833,9.846V267.322z"/>
<path stroke="#000000" stroke-miterlimit="10" d="M267.334,128.532c5.43,0,9.833,4.407,9.833,9.845l0,0
	c0,5.438-4.403,9.846-9.833,9.846h-44c-5.431,0-9.834-4.408-9.834-9.846l0,0c0-5.438,4.403-9.845,9.834-9.845H267.334z"/>
<path stroke="#000000" stroke-miterlimit="10" d="M54.334,128.532c5.43,0,9.833,4.407,9.833,9.845l0,0
	c0,5.438-4.403,9.846-9.833,9.846h-44c-5.431,0-9.834-4.408-9.834-9.846l0,0c0-5.438,4.403-9.845,9.834-9.845H54.334z"/>
<path stroke="#000000" stroke-miterlimit="10" d="M72.771,190.887c3.839-3.844,10.065-3.845,13.906,0l0,0
	c3.84,3.845,3.84,10.08,0,13.923l-31.112,31.15c-3.841,3.845-10.067,3.846-13.907,0l0,0c-3.841-3.845-3.84-10.079,0-13.924
	L72.771,190.887z"/>
<path stroke="#000000" stroke-miterlimit="10" d="M222.104,41.707c3.839-3.844,10.065-3.845,13.906,0l0,0
	c3.84,3.845,3.84,10.08,0,13.923l-31.112,31.15c-3.841,3.845-10.067,3.846-13.907,0l0,0c-3.841-3.845-3.84-10.079,0-13.924
	L222.104,41.707z"/>
<path stroke="#000000" stroke-miterlimit="10" d="M86.678,72.857c3.839,3.844,3.839,10.079-0.002,13.924l0,0
	c-3.842,3.845-10.068,3.845-13.906,0L41.658,55.63c-3.842-3.845-3.842-10.08-0.002-13.922l0,0c3.841-3.846,10.068-3.846,13.908,0
	L86.678,72.857z"/>
<path stroke="#000000" stroke-miterlimit="10" d="M236.011,222.037c3.839,3.844,3.839,10.079-0.002,13.924l0,0
	c-3.842,3.845-10.068,3.845-13.906,0l-31.111-31.151c-3.842-3.845-3.842-10.08-0.002-13.922l0,0c3.841-3.846,10.068-3.846,13.908,0
	L236.011,222.037z"/>
</svg>
