<svg version="1.1" id="Layer_2" xmlns="http://www.w3.org/2000/svg" xmlns:xlink="http://www.w3.org/1999/xlink" x="0px" y="0px" width="24px" height="24px" viewBox="0 0 32.578 31.775" enable-background="new 0 0 24px 24px" xml:space="preserve">
	<defs>
		<style>
			svg { cursor: pointer; }
			path {
				fill: black
			}
			path:hover {
				fill: grey
			}
		</style>
	</defs>
	<path fill-rule="evenodd" clip-rule="evenodd" fill="#FFFFFF" d="M16.288,0C7.293,0,0,7.295,0,16.291
	c0,7.197,4.666,13.303,11.141,15.457c0.814,0.148,1.111-0.354,1.111-0.785c0-0.387-0.014-1.412-0.021-2.771
	c-4.531,0.984-5.488-2.184-5.488-2.184c-0.74-1.881-1.809-2.383-1.809-2.383c-1.479-1.01,0.112-0.99,0.112-0.99
	c1.635,0.115,2.495,1.68,2.495,1.68c1.453,2.488,3.813,1.77,4.74,1.354c0.148-1.053,0.569-1.771,1.035-2.178
	c-3.617-0.412-7.42-1.809-7.42-8.051c0-1.779,0.635-3.232,1.676-4.371C7.405,10.656,6.846,9,7.732,6.758c0,0,1.367-0.439,4.479,1.67
	c1.3-0.361,2.692-0.543,4.078-0.549c1.384,0.006,2.776,0.188,4.078,0.549c3.11-2.109,4.476-1.67,4.476-1.67
	c0.889,2.242,0.329,3.898,0.162,4.311c1.043,1.139,1.674,2.592,1.674,4.371c0,6.258-3.809,7.635-7.438,8.037
	c0.585,0.504,1.105,1.498,1.105,3.018c0,2.178-0.02,3.934-0.02,4.469c0,0.436,0.293,0.941,1.12,0.783
	c6.468-2.158,11.13-8.26,11.13-15.455C32.578,7.295,25.285,0,16.288,0z" />
</svg>
